<?xml version="1.0" encoding="UTF-8" standalone="no"?>
<!DOCTYPE svg PUBLIC "-//W3C//DTD SVG 1.1//EN" "http://www.w3.org/Graphics/SVG/1.1/DTD/svg11.dtd">
<svg version="1.1" xmlns="http://www.w3.org/2000/svg" xmlns:xlink="http://www.w3.org/1999/xlink" preserveAspectRatio="xMidYMid meet" viewBox="0 0 640 640" width="640" height="640"><defs><path d="M1043.98 -273.82C1043.98 -271.23 1042.07 -269.32 1039.47 -269.32C1037 -269.32 1034.97 -271.23 1034.97 -273.82C1034.97 -276.3 1037 -278.33 1039.47 -278.33C1039.47 -278.33 1039.47 -278.33 1039.47 -278.33C1042.48 -276.98 1043.98 -275.48 1043.98 -273.82Z" id="fxSydusvi"></path><path d="M1043.42 -266.39C1043.42 -265.83 1042.97 -265.37 1042.4 -265.37C1041.84 -265.37 1041.39 -265.83 1041.39 -266.39C1041.39 -266.95 1041.84 -267.4 1042.4 -267.4C1042.4 -267.4 1042.4 -267.4 1042.4 -267.4C1043.08 -267.1 1043.42 -266.76 1043.42 -266.39Z" id="b1ZKI4Gsqe"></path><path d="M310.08 366.51C310.08 376.76 301.75 385.1 291.49 385.1C281.24 385.1 272.91 376.76 272.91 366.51C272.91 356.27 281.24 348.04 291.49 348.04C291.49 348.04 291.49 348.04 291.49 348.04C303.89 353.52 310.08 359.68 310.08 366.51Z" id="c2e3pJobbY"></path><path d="M282.37 381.84C282.37 385.67 279.33 388.71 275.5 388.71C271.67 388.71 268.63 385.67 268.63 381.84C268.63 378.12 271.67 374.96 275.5 374.96C275.5 374.96 275.5 374.96 275.5 374.96C280.08 377.07 282.37 379.36 282.37 381.84Z" id="b8b6sGEuv"></path><path d="M290.26 391.52C290.26 393.44 288.68 395.01 286.88 395.01C284.96 395.01 283.38 393.44 283.38 391.52C283.38 389.61 284.96 388.14 286.88 388.14C286.88 388.14 286.88 388.14 286.88 388.14C289.13 389.12 290.26 390.25 290.26 391.52Z" id="aLdfXO1Cs"></path><path d="M329.45 248.35C329.45 258.6 321.12 266.82 310.87 266.82C300.62 266.82 292.28 258.6 292.28 248.35C292.28 238.09 300.62 229.76 310.87 229.76C310.87 229.76 310.87 229.76 310.87 229.76C323.26 235.32 329.45 241.51 329.45 248.35Z" id="devqnYILG"></path><path d="M350.52 233.37C350.52 239.34 345.68 244.18 339.82 244.18C333.85 244.18 329.12 239.34 329.12 233.37C329.12 227.51 333.85 222.66 339.82 222.66C339.82 222.66 339.82 222.66 339.82 222.66C346.95 225.89 350.52 229.46 350.52 233.37Z" id="i6OZIbX7a"></path><path d="M324.5 220.86C324.5 222.78 322.92 224.46 320.89 224.46C318.87 224.46 317.18 222.78 317.18 220.86C317.18 218.83 318.87 217.14 320.89 217.14C320.89 217.14 320.89 217.14 320.89 217.14C323.3 218.27 324.5 219.51 324.5 220.86Z" id="c4nF9l3z6F"></path><path d="M475.67 289.13C475.67 293.74 471.84 297.58 467.11 297.58C462.38 297.58 458.55 293.74 458.55 289.13C458.55 284.39 462.38 280.56 467.11 280.56C467.11 280.56 467.11 280.56 467.11 280.56C472.82 283.12 475.67 285.97 475.67 289.13Z" id="a3HnPpNVpx"></path><path d="M491.56 279.67C491.56 282.48 489.3 284.62 486.6 284.62C483.9 284.62 481.64 282.48 481.64 279.67C481.64 276.96 483.9 274.82 486.6 274.82C486.6 274.82 486.6 274.82 486.6 274.82C489.91 276.25 491.56 277.86 491.56 279.67Z" id="bxrvL8YxR"></path><path d="M482.77 266.03C482.77 269.86 479.73 272.9 476.01 272.9C472.18 272.9 469.14 269.86 469.14 266.03C469.14 262.2 472.18 259.16 476.01 259.16C476.01 259.16 476.01 259.16 476.01 259.16C480.52 261.19 482.77 263.48 482.77 266.03Z" id="a1779RhtoH"></path><path d="M284.85 240.69C285.17 240.67 286.79 240.6 289.69 240.46C292.19 241.48 293.58 242.04 293.86 242.15C294.42 242.26 294.98 242.38 295.44 242.49C299.6 243.5 303.43 245.53 306.93 248.01C311.32 245.65 316.39 244.52 321.79 244.85C325.17 245.08 328.22 245.98 331.37 247.22C335.76 247.45 341.39 246.43 345.56 245.87C356.04 244.4 364.71 244.85 374.18 249.92C374.74 250.26 375.3 250.6 375.86 250.94C379.92 250.49 384.09 250.49 388.26 250.37C391.75 250.26 395.35 250.26 398.96 250.49C402.45 250.71 405.94 250.6 409.43 250.49C414.28 250.37 419.12 250.26 423.97 250.6C438.72 251.5 455.62 254.09 462.83 268.85C467.34 278.08 465.87 287.33 462.15 295.89C465.19 295.21 468.35 294.53 471.39 293.86C477.7 292.39 484.23 291.83 490.65 292.28C500.9 292.95 510.14 297.69 515.21 306.81C520.39 316.05 519.49 326.52 516.11 336.1C510.82 350.85 501.02 357.5 485.58 357.28C484.68 357.39 483.67 357.62 482.88 357.73C479.39 358.4 476.01 359.19 472.63 359.87C462.94 362.12 453.37 364.48 443.68 367.08C435.23 369.22 426.78 371.59 418.45 374.06C413.15 375.53 407.75 377.1 402.68 379.13C395.47 381.95 389.38 384.32 381.39 383.86C374.51 383.41 368.32 380.82 363.14 376.54C359.64 377.67 356.04 378.34 352.32 378.79C346.91 379.35 341.62 379.35 336.21 379.69C334.63 379.8 332.83 380.26 331.26 380.6C327.32 381.27 323.37 381.6 319.32 381.27C304.67 380.25 294.31 373.72 289.92 362.46C279.89 370.46 267.5 375.86 255.33 375.07C250.82 374.74 246.43 373.72 242.26 372.14C236.86 377.67 230.1 381.83 223.12 383.86C222.88 383.93 221.67 384.27 219.51 384.87C217.28 384.67 216.04 384.56 215.79 384.54C209.6 383.97 203.74 381.95 198.9 378.57C193.6 380.37 188.2 380.82 181.32 380.48C167.13 379.92 154.51 373.72 146.52 361.78C143.59 357.39 141.56 352.43 139.98 347.48C138.18 341.62 137.06 335.54 137.73 329.45C137.96 327.33 139.76 310.29 139.98 308.16C140.77 299.83 143.02 291.94 146.63 284.51C148.54 280.67 150.8 277.3 152.82 273.69C160.71 259.5 172.76 248.8 189.43 246.65C192.93 246.2 196.53 246.1 200.13 246.32C207.91 246.88 215.01 249.13 221.09 252.97C226.95 247.11 234.38 243.28 243.17 242.83C243.36 242.82 244.3 242.78 245.98 242.71C247.54 243.05 248.4 243.24 248.58 243.28C254.43 244.63 259.39 247.11 263.22 250.71C263.22 250.71 263.22 250.71 263.22 250.71C272.01 244.41 279.22 241.06 284.85 240.69Z" id="b2w5mYcQ5V"></path><path d="M310.08 291.38C310.08 290.84 310.08 290.54 310.08 290.48C308.73 290.03 307.38 289.46 306.14 288.9C305.98 288.83 305.19 288.5 303.77 287.88C303.16 286.47 302.83 285.68 302.76 285.52C302.65 285.3 302.53 285.07 302.42 284.96C302.42 285.41 302.42 285.86 302.42 286.31C302.42 286.36 302.42 286.58 302.42 286.99C302.35 287.39 302.32 287.62 302.31 287.66C301.63 291.04 301.41 295.21 301.07 298.7C300.62 303.32 299.6 307.71 298.03 312.11C295.55 319.43 292.96 326.3 288.68 332.83C281.36 343.65 266.03 355.37 252.29 354.46C245.31 353.9 239.22 351.08 234.27 346.81C231.23 354.69 222.89 361.56 215.46 363.7C215.37 363.72 214.96 363.84 214.22 364.04C213.47 363.97 213.06 363.94 212.98 363.93C207.57 363.36 202.73 361.34 199.23 357.06C198.67 356.27 198 355.59 197.43 354.8C191.12 359.31 186.73 360.21 178.06 359.87C168.14 359.42 159.58 355.47 153.95 347.26C151.81 343.99 150.35 340.27 149.22 336.55C148.09 332.61 147.08 328.22 147.53 324.05C147.74 321.92 149.45 304.89 149.67 302.76C150.46 296 152.26 289.69 155.19 283.61C156.88 280 159.02 277.08 160.93 273.58C166.68 263.33 175.13 255.11 187.18 253.53C189.77 253.19 192.48 253.19 195.18 253.31C206.9 254.09 215.46 260.07 220.53 270.2C220.86 267.84 221.32 265.58 221.99 263.22C222.01 263.17 222.08 262.91 222.22 262.43C222.49 261.96 222.64 261.7 222.67 261.64C226.5 255.11 232.13 250.15 239.9 249.82C239.96 249.82 240.26 249.82 240.8 249.82C241.34 249.88 241.64 249.92 241.7 249.93C249.93 251.84 255.67 257.59 254.1 266.37C254.1 269.64 253.65 273.02 253.2 276.28C252.86 279.55 252.63 282.71 252.41 285.97C251.96 294.65 252.07 303.32 255.45 311.54C255.79 312.44 256.69 314.36 257.59 315.82C258.04 315.49 258.38 315.15 258.71 314.7C260.07 312.56 261.42 310.19 262.77 308.05C264.91 304.45 265.7 297.12 266.04 293.07C266.49 285.52 265.7 278.09 263.11 270.99C263.05 270.83 262.75 270.05 262.21 268.63C262.68 267.27 262.94 266.52 262.99 266.37C264.24 263 265.81 258.26 267.84 255.34C271.11 250.6 276.06 248.13 281.81 247.67C281.91 247.67 282.44 247.63 283.38 247.56C284.26 247.97 284.75 248.19 284.85 248.24C285.87 248.58 287.22 248.91 288.34 249.14C291.16 249.82 293.75 251.39 296 253.31C296.1 253.38 296.59 253.76 297.47 254.44C297.87 255.45 298.1 256.01 298.14 256.12C299.16 258.71 299.94 261.53 300.51 264.35C301.19 262.65 301.97 260.97 302.99 259.39C306.25 254.54 310.98 251.39 316.95 251.84C318.87 251.95 320.9 252.63 322.7 253.42C323.15 253.53 323.94 253.87 324.39 253.98C330.47 254.32 337.46 253.53 343.54 252.74C350.97 251.62 356.83 251.62 363.7 255.34C365.51 256.24 366.86 257.59 367.76 259.28C369.11 258.6 370.57 258.15 372.15 257.93C376.09 257.47 380.6 257.47 384.54 257.36C387.7 257.25 390.96 257.25 394.12 257.47C397.95 257.7 402 257.58 405.83 257.47C410.23 257.36 414.73 257.25 419.02 257.47C427.91 258.15 441.99 259.05 446.5 268.18C450.78 276.85 443.79 287.66 439.06 294.76C438.98 294.89 438.57 295.53 437.83 296.67C436.61 297.15 435.93 297.41 435.8 297.46C434.78 297.91 433.09 300.06 432.42 300.96C430.62 303.32 428.25 306.25 425.77 308.28C425.21 309.18 424.53 310.08 423.86 310.98C428.14 310.08 432.31 309.07 436.59 308.16C447.85 305.58 459.12 302.98 470.38 300.51C475.45 299.38 480.63 298.82 485.81 299.15C491.22 299.6 496.4 301.74 499.22 306.7C502.37 312.22 501.13 318.98 499.11 324.61C495.84 333.85 491.22 337.23 481.42 336.55C479.96 336.55 477.82 337 476.35 337.34C472.75 338.02 469.14 338.8 465.65 339.59C455.85 341.85 446.05 344.21 436.25 346.81C427.69 349.06 419.13 351.42 410.56 353.9C404.93 355.48 398.96 357.28 393.56 359.42C388.6 361.34 383.76 363.59 378.35 363.25C373.73 362.91 369.79 360.89 366.63 357.73C365.06 356.15 363.82 354.46 362.92 352.55C358.52 355.7 352.78 357.51 346.81 358.18C341.63 358.74 336.44 358.74 331.26 359.09C329.35 359.19 326.87 359.76 324.95 360.09C322.14 360.54 319.21 360.89 316.28 360.66C303.1 359.76 296.68 353.68 297.58 340.05C298.03 333.4 301.64 328.44 307.83 325.97C309.75 325.17 312.23 324.61 314.82 324.27C315.38 318.64 315.72 313.01 315.94 307.38C316.28 302.31 316.62 297.24 316.95 292.06C316.73 292.05 316.39 292.05 316.16 291.94C316.16 291.94 316.16 291.94 316.16 291.94L310.08 291.38ZM355.59 289.8C354.01 290.37 352.66 290.7 351.42 290.93C351.2 293.3 351.08 295.66 350.86 298.03C350.52 302.98 350.52 308.16 350.29 313.12C350.18 315.15 350.18 317.18 349.96 319.2C356.6 318.64 362.69 320.33 368.21 326.52C368.55 326.97 368.88 327.43 369.22 327.88C379.13 316.84 388.93 305.57 398.74 294.31C396.82 294.53 394.91 294.76 392.99 295.1C386.46 296 379.47 297.01 372.82 296.56C366.29 296.11 362.01 292.5 359.76 287.66C359.76 287.66 359.76 287.66 359.76 287.66C357.96 288.64 356.57 289.35 355.59 289.8Z" id="aVEtoa8tQ"></path><path d="M372.94 264.79C374.4 264.68 387.47 263.89 393.55 264.34C396.37 264.46 400.54 264.57 406.05 264.34C411.69 264.23 415.86 264.23 418.56 264.34C443.23 266.14 446.5 271.1 433.32 290.93C431.52 291.6 429.38 293.52 426.89 296.67C424.19 300.28 422.05 302.53 420.7 303.54C418 307.71 412.82 314.02 405.04 322.58C412.25 320.67 470.38 307.6 471.84 307.26C476.8 306.14 481.19 305.8 485.25 306.14C495.73 306.81 495.28 314.81 492.57 322.35C490.31 328.67 488.4 330.13 481.75 329.68C474.89 329.12 406.73 346.69 390.96 353C383.98 355.81 377.67 358.97 371.47 352.77C369.11 350.4 367.87 347.59 368.09 344.32C368.21 342.52 368.89 340.61 370.01 338.8C372.04 335.65 373.05 334.07 373.05 333.96C384.65 321 398.4 305.35 414.28 286.87C398.4 285.86 384.65 290.48 373.28 289.69C373.28 289.69 373.28 289.69 373.28 289.69C366.82 273.84 366.71 265.54 372.94 264.79Z" id="a4Tobfkv3w"></path><path d="M362.8 266.26C362.8 266.37 362.57 268.4 362.35 272.23C362.01 277.3 358.86 281.02 353 283.38C350.07 284.51 352.55 283.61 345.11 284.62C344.66 288.68 344.33 293.07 343.99 297.58C343.88 298.7 343.76 303.88 343.43 312.89C343.2 319.2 342.75 324.27 342.07 328.1C350.74 325.29 356.72 324.95 363.02 331.03C363.92 332.27 364.26 334.3 363.92 337.11C363.47 346.8 354.91 349.84 346.13 351.3C340.95 351.65 335.88 351.87 330.81 352.2C329.79 352.32 327.54 352.66 323.82 353.22C321.12 353.67 318.76 353.9 316.84 353.78C307.71 353.11 303.77 350.52 304.45 340.49C304.78 336.55 306.7 333.85 310.42 332.38C311.77 331.82 315.26 331.14 321.01 330.24C321.79 324.72 322.36 317.18 322.92 307.82C323.6 296.79 324.16 289.35 324.5 285.3C319.43 285.18 317.06 285.18 317.63 285.18C315.26 285.07 312.45 284.17 309.07 282.59C307.6 279.44 306.81 277.86 306.7 277.64C306.03 275.83 305.69 273.92 305.8 272.11C306.03 268.85 307.04 265.81 308.84 263.22C310.87 259.95 313.35 258.48 316.39 258.71C317.29 258.71 318.53 259.16 320.11 259.73C321.68 260.4 322.92 260.74 323.82 260.85C328.78 261.19 335.76 260.74 344.55 259.5C350.63 258.71 355.14 258.48 360.44 261.41C360.44 261.41 360.44 261.41 360.44 261.41C361.86 263.14 362.65 264.76 362.8 266.26Z" id="c6432qxGlO"></path><path d="M294.2 298.02C293.75 302.87 292.85 306.81 291.49 309.85C289.92 316.38 286.99 322.81 282.93 329C277.3 337.22 264.12 348.27 252.85 347.48C244.52 346.91 237.08 341.39 230.66 330.69C228.3 324.83 226.83 316.16 226.05 304.67C225.93 301.97 225.93 297.46 225.93 290.93C226.16 282.7 226.38 278.2 226.5 277.52C226.72 273.69 227.4 269.52 228.64 265.13C231.79 259.73 235.62 256.91 240.13 256.68C245.87 258.03 248.24 260.96 247.22 265.58C247.22 267.72 246.89 270.99 246.32 275.38C245.76 279.89 245.53 283.27 245.53 285.52C244.52 294.87 245.65 304.33 249.03 314.13C251.73 320.1 254.55 323.37 257.14 323.82C260.18 322.7 262.54 321 264.23 318.87C264.46 318.64 265.92 316.27 268.74 311.65C270.88 307.94 272.35 301.97 272.91 293.52C273.47 284.62 272.34 276.28 269.53 268.62C271.22 263.78 272.57 260.74 273.47 259.27C275.5 256.34 278.43 254.88 282.26 254.54C282.82 254.88 284.39 255.33 286.76 255.89C288.11 256.23 289.81 257.13 291.61 258.6C294.2 265.24 295.55 274.48 295.55 286.31C295.55 286.31 295.55 286.31 295.55 286.31C295.1 289.61 294.65 293.52 294.2 298.02Z" id="njigYknjZ"></path><path d="M215.79 323.93C224.47 332.5 228.75 338.24 228.52 341.28C228.07 347.93 219.85 355.25 213.54 357.05C209.71 356.72 206.67 355.25 204.64 352.66C202.73 350.3 200.81 347.93 199.01 345.56C198.22 346.01 196.98 346.46 195.74 347.48C188.87 352.77 186.17 353.22 178.28 352.88C169.83 352.55 163.64 349.17 159.7 343.42C158.23 341.06 156.99 338.12 155.87 334.63C154.74 330.69 154.07 327.43 154.4 324.72C154.63 322.59 156.43 305.56 156.65 303.43C158 289.58 164.43 281.35 166.91 276.96C172.54 267.04 179.52 261.52 188.08 260.4C190.33 260.17 192.59 260.06 194.73 260.17C204.64 260.96 211.63 266.14 215.46 275.83C215.46 275.83 215.46 275.83 215.46 275.83C218.23 296.48 218.35 312.52 215.79 323.93ZM197.32 289.69C196.87 288.9 195.74 288 194.05 287.1C192.25 286.2 190.79 285.75 189.77 285.63C188.09 285.52 185.38 286.2 182.23 288.68C177.72 292.39 175.47 300.61 174.68 312.56C174.65 312.9 174.47 315.6 174.45 315.93C174.23 319.09 176.14 321.9 178.28 324.5C180.31 326.97 182.79 328.33 185.38 328.55C183.8 325.62 182.11 322.7 180.54 319.65C178.62 315.94 177.83 312.89 178.06 310.53C178.73 300.61 191.69 294.76 198.78 302.53C198.78 302.53 198.78 302.53 198.78 302.53C198.41 295.4 197.92 291.12 197.32 289.69Z" id="d7WURFtHy7"></path></defs><g><g><g><use xlink:href="#fxSydusvi" opacity="1" fill="#000000" fill-opacity="1"></use><g><use xlink:href="#fxSydusvi" opacity="1" fill-opacity="0" stroke="#000000" stroke-width="1" stroke-opacity="0"></use></g></g><g><use xlink:href="#b1ZKI4Gsqe" opacity="1" fill="#000000" fill-opacity="1"></use><g><use xlink:href="#b1ZKI4Gsqe" opacity="1" fill-opacity="0" stroke="#000000" stroke-width="1" stroke-opacity="0"></use></g></g><g><use xlink:href="#c2e3pJobbY" opacity="1" fill="#000000" fill-opacity="1"></use><g><use xlink:href="#c2e3pJobbY" opacity="1" fill-opacity="0" stroke="#000000" stroke-width="1" stroke-opacity="0"></use></g></g><g><use xlink:href="#b8b6sGEuv" opacity="1" fill="#000000" fill-opacity="1"></use><g><use xlink:href="#b8b6sGEuv" opacity="1" fill-opacity="0" stroke="#000000" stroke-width="1" stroke-opacity="0"></use></g></g><g><use xlink:href="#aLdfXO1Cs" opacity="1" fill="#000000" fill-opacity="1"></use><g><use xlink:href="#aLdfXO1Cs" opacity="1" fill-opacity="0" stroke="#000000" stroke-width="1" stroke-opacity="0"></use></g></g><g><use xlink:href="#devqnYILG" opacity="1" fill="#000000" fill-opacity="1"></use><g><use xlink:href="#devqnYILG" opacity="1" fill-opacity="0" stroke="#000000" stroke-width="1" stroke-opacity="0"></use></g></g><g><use xlink:href="#i6OZIbX7a" opacity="1" fill="#000000" fill-opacity="1"></use><g><use xlink:href="#i6OZIbX7a" opacity="1" fill-opacity="0" stroke="#000000" stroke-width="1" stroke-opacity="0"></use></g></g><g><use xlink:href="#c4nF9l3z6F" opacity="1" fill="#000000" fill-opacity="1"></use><g><use xlink:href="#c4nF9l3z6F" opacity="1" fill-opacity="0" stroke="#000000" stroke-width="1" stroke-opacity="0"></use></g></g><g><use xlink:href="#a3HnPpNVpx" opacity="1" fill="#000000" fill-opacity="1"></use><g><use xlink:href="#a3HnPpNVpx" opacity="1" fill-opacity="0" stroke="#000000" stroke-width="1" stroke-opacity="0"></use></g></g><g><use xlink:href="#bxrvL8YxR" opacity="1" fill="#000000" fill-opacity="1"></use><g><use xlink:href="#bxrvL8YxR" opacity="1" fill-opacity="0" stroke="#000000" stroke-width="1" stroke-opacity="0"></use></g></g><g><use xlink:href="#a1779RhtoH" opacity="1" fill="#000000" fill-opacity="1"></use><g><use xlink:href="#a1779RhtoH" opacity="1" fill-opacity="0" stroke="#000000" stroke-width="1" stroke-opacity="0"></use></g></g><g><use xlink:href="#b2w5mYcQ5V" opacity="1" fill="#000000" fill-opacity="1"></use><g><use xlink:href="#b2w5mYcQ5V" opacity="1" fill-opacity="0" stroke="#000000" stroke-width="1" stroke-opacity="0"></use></g></g><g><use xlink:href="#aVEtoa8tQ" opacity="1" fill="#fefefe" fill-opacity="1"></use><g><use xlink:href="#aVEtoa8tQ" opacity="1" fill-opacity="0" stroke="#000000" stroke-width="1" stroke-opacity="0"></use></g></g><g><use xlink:href="#a4Tobfkv3w" opacity="1" fill="#1b89bc" fill-opacity="1"></use><g><use xlink:href="#a4Tobfkv3w" opacity="1" fill-opacity="0" stroke="#000000" stroke-width="1" stroke-opacity="0"></use></g></g><g><use xlink:href="#c6432qxGlO" opacity="1" fill="#f3ad0f" fill-opacity="1"></use><g><use xlink:href="#c6432qxGlO" opacity="1" fill-opacity="0" stroke="#000000" stroke-width="1" stroke-opacity="0"></use></g></g><g><use xlink:href="#njigYknjZ" opacity="1" fill="#a5127d" fill-opacity="1"></use><g><use xlink:href="#njigYknjZ" opacity="1" fill-opacity="0" stroke="#000000" stroke-width="1" stroke-opacity="0"></use></g></g><g><use xlink:href="#d7WURFtHy7" opacity="1" fill="#e31345" fill-opacity="1"></use><g><use xlink:href="#d7WURFtHy7" opacity="1" fill-opacity="0" stroke="#000000" stroke-width="1" stroke-opacity="0"></use></g></g></g></g></svg>