<?xml version="1.0" encoding="UTF-8" standalone="no"?>
<!DOCTYPE svg PUBLIC "-//W3C//DTD SVG 1.1//EN" "http://www.w3.org/Graphics/SVG/1.1/DTD/svg11.dtd">
<svg version="1.1" xmlns="http://www.w3.org/2000/svg" xmlns:xlink="http://www.w3.org/1999/xlink" preserveAspectRatio="xMidYMid meet" viewBox="0 0 640 640" width="640" height="640"><defs><path d="M124.79 293.4C124.79 267.66 124.79 253.36 124.79 250.5C124.79 224.3 147.65 203.05 175.82 203.05C179.39 203.05 207.93 203.05 211.5 203.05C239.67 203.05 262.53 224.3 262.53 250.5C262.53 253.36 262.53 267.66 262.53 293.4L124.79 293.4Z" id="cfyCVQRW8"></path><path d="M211.41 203.05C231.49 210.03 245.74 227.99 245.74 249.01C245.74 251.96 245.74 266.74 245.74 293.32L262.61 293.32C262.61 267.63 262.61 253.36 262.61 250.5C262.53 224.3 239.67 203.05 211.5 203.05C211.48 203.05 211.42 203.05 211.41 203.05Z" id="g2AAIi8rn"></path><path d="M210.48 211.52C200.45 218.42 186.78 218.42 176.75 211.52C176.75 211.52 176.75 211.52 176.75 211.52L176.75 155.44L210.48 155.44L210.48 211.52C210.48 211.52 210.48 211.52 210.48 211.52Z" id="aTaIBkowQ"></path><path d="M210.57 202.97C210.57 199.81 210.57 183.99 210.57 155.52L176.83 155.52L176.83 193.71C191.11 199.52 202.36 202.6 210.57 202.97Z" id="a5HJCiOzw0"></path><path d="M267.59 126.34C258.48 126.34 251.14 119.52 251.14 111.05C251.14 110.39 251.14 105.19 251.14 104.54C251.14 96.06 258.48 89.24 267.59 89.24C267.59 89.24 267.59 89.24 267.59 89.24C276.7 89.24 284.03 96.06 284.03 104.54C284.03 105.19 284.03 110.39 284.03 111.05C284.03 119.44 276.61 126.34 267.59 126.34C267.59 126.34 267.59 126.34 267.59 126.34Z" id="a17fwkw2J6"></path><path d="M119.73 126.34C110.62 126.34 103.28 119.52 103.28 111.05C103.28 110.39 103.28 105.19 103.28 104.54C103.28 96.06 110.62 89.24 119.73 89.24C119.73 89.24 119.73 89.24 119.73 89.24C128.84 89.24 136.18 96.06 136.18 104.54C136.18 105.19 136.18 110.39 136.18 111.05C136.18 119.44 128.84 126.34 119.73 126.34C119.73 126.34 119.73 126.34 119.73 126.34Z" id="fT2XHBQaG"></path><path d="M193.7 191.99C152.54 191.99 119.14 160.93 119.14 122.65C119.14 119.69 119.14 95.97 119.14 93.01C119.14 54.73 152.54 23.67 193.7 23.67C193.7 23.67 193.7 23.67 193.7 23.67C234.86 23.67 268.26 54.73 268.26 93.01C268.26 95.97 268.26 119.69 268.26 122.65C268.26 160.93 234.86 191.99 193.7 191.99C193.7 191.99 193.7 191.99 193.7 191.99Z" id="ab4hEZUtTP"></path><path d="M253.92 89.4C254.68 92.69 255.52 96.06 256.28 99.36C244.31 88.22 229.38 79.91 213.18 75.36C215.54 78.42 217.91 82.03 220.27 85.08C192.1 85.79 163.92 79.59 139.63 66.26C135.5 81.48 128.58 95.99 119.47 109.16C109.61 92.93 108.68 74.03 112.81 55.75C113.99 50.57 115.59 45.32 119.14 41.16C122.6 37 128.42 34.1 133.98 35.12C135.08 26.89 141.32 19.28 148.24 14.02C155.15 8.77 163.5 5.47 171.94 2.89C188.22 -2.06 205.76 -4.41 222.63 -1.51C239.5 1.4 255.61 9.87 264.97 23.28C270.96 31.91 273.91 42.02 275.94 52.14C277.88 61.87 279.06 71.83 278.04 81.71C276.95 91.67 274.84 99.12 268.51 107.12C264.21 100.85 259.32 94.89 253.92 89.4Z" id="a1gcdxjlAq"></path><path d="M370.15 293.4C370.15 267.66 370.15 253.36 370.15 250.5C370.15 224.3 393.01 203.05 421.18 203.05C424.75 203.05 453.29 203.05 456.86 203.05C485.03 203.05 507.89 224.3 507.89 250.5C507.89 253.36 507.89 267.66 507.89 293.4L370.15 293.4Z" id="b26ZlbEVdA"></path><path d="M456.69 203.05C476.76 210.03 491.02 227.99 491.02 249.01C491.02 251.96 491.02 266.74 491.02 293.32L507.89 293.32C507.89 267.63 507.89 253.36 507.89 250.5C507.89 224.3 485.11 203.05 456.86 203.05C456.82 203.05 456.71 203.05 456.69 203.05Z" id="ck60CZ1it"></path><path d="M455.93 211.52C445.89 218.42 432.23 218.42 422.19 211.52C422.19 211.52 422.19 211.52 422.19 211.52L422.19 155.44L455.93 155.44L455.93 211.52C455.93 211.52 455.93 211.52 455.93 211.52Z" id="bIr3mewgo"></path><path d="M455.93 202.97C455.93 199.81 455.93 183.99 455.93 155.52L422.19 155.52L422.19 193.71C436.47 199.52 447.72 202.6 455.93 202.97Z" id="b4cAY4c3cO"></path><path d="M512.95 126.34C503.84 126.34 496.5 119.52 496.5 111.05C496.5 110.39 496.5 105.19 496.5 104.54C496.5 96.06 503.84 89.24 512.95 89.24C512.95 89.24 512.95 89.24 512.95 89.24C522.06 89.24 529.4 96.06 529.4 104.54C529.4 105.19 529.4 110.39 529.4 111.05C529.4 119.44 521.97 126.34 512.95 126.34C512.95 126.34 512.95 126.34 512.95 126.34Z" id="a1mN9b0Uvy"></path><path d="M365.17 126.34C356.06 126.34 348.73 119.52 348.73 111.05C348.73 110.39 348.73 105.19 348.73 104.54C348.73 96.06 356.06 89.24 365.17 89.24C365.17 89.24 365.17 89.24 365.17 89.24C374.28 89.24 381.62 96.06 381.62 104.54C381.62 105.19 381.62 110.39 381.62 111.05C381.54 119.44 374.2 126.34 365.17 126.34C365.17 126.34 365.17 126.34 365.17 126.34Z" id="e40iqUDsk"></path><path d="M439.06 191.99C397.9 191.99 364.5 160.93 364.5 122.65C364.5 119.69 364.5 95.97 364.5 93.01C364.5 54.73 397.9 23.67 439.06 23.67C439.06 23.67 439.06 23.67 439.06 23.67C480.22 23.67 513.62 54.73 513.62 93.01C513.62 95.97 513.62 119.69 513.62 122.65C513.62 160.93 480.22 191.99 439.06 191.99C439.06 191.99 439.06 191.99 439.06 191.99Z" id="b1ajQoVofq"></path><path d="M413.34 84.06C417.05 83.36 420.76 82.65 424.55 82.03C414.18 77.55 400.77 79.12 390.56 83.91C380.36 88.69 372.01 96.14 363.82 103.52C351 83.99 346.7 60.06 354.46 38.26C356.15 39.2 357.75 39.75 359.35 40.69C361.46 21.08 369.56 2.02 382.38 -13.66C381.87 -10.37 382.72 -6.92 384.57 -4.02C388.29 -11.23 393.85 -18.68 399.76 -24.49C396.72 -20.57 397.82 -14.68 401.11 -10.92C404.48 -7.15 409.54 -5.11 414.6 -3.86C425.31 -1.19 436.62 -1.51 447.75 -1.74C458.88 -1.98 470.18 -2.13 480.81 0.85C491.44 3.83 501.48 10.49 505.36 20.14C510.42 21.79 513.88 25.79 515.98 30.42C518.09 35.04 518.68 40.06 519.02 45.08C520.2 63.2 518.09 81.48 512.86 98.89C507.97 88.77 497.34 80.77 485.96 77.71C464.03 88.77 437.12 91.12 413.34 84.06Z" id="b5aYgxCI3K"></path><path d="M103.36 447.84C102.18 480.94 110.87 513.72 122 545.17C141.32 533.33 167.13 533.02 188.64 540.86C198.84 513.17 203.74 484.47 205.51 455.29C207.28 426.11 201.88 395.92 185.77 370.82C181.13 363.6 175.31 356.62 167.05 353.25C158.86 349.8 148.49 351.84 142.08 357.72C116.61 380.93 104.55 414.66 103.36 447.84Z" id="b1vFwhABhJ"></path><path d="M283.86 447.84C285.05 480.94 276.36 513.72 265.22 545.17C245.91 533.33 220.1 533.02 198.59 540.86C188.39 513.17 183.49 484.47 181.72 455.29C179.95 426.11 185.35 395.92 201.46 370.82C206.1 363.6 211.92 356.62 220.18 353.25C228.37 349.8 238.74 351.84 245.15 357.72C270.62 380.93 282.68 414.66 283.86 447.84Z" id="etdLTSniP"></path><path d="M124.79 640C124.79 614.31 124.79 600.03 124.79 597.18C124.79 570.98 147.65 549.72 175.82 549.72C179.39 549.72 207.93 549.72 211.5 549.72C239.67 549.72 262.53 570.98 262.53 597.18C262.53 600.03 262.53 614.31 262.53 640L124.79 640Z" id="a19pGVijCK"></path><path d="M211.41 549.64C231.49 556.63 245.74 574.59 245.74 595.61C245.74 598.56 245.74 613.33 245.74 639.92L262.61 639.92C262.61 614.23 262.61 599.95 262.61 597.1C262.53 570.9 239.67 549.64 211.5 549.64C211.48 549.64 211.42 549.64 211.41 549.64Z" id="c1g6dmO1BI"></path><path d="M210.48 558.12C200.45 565.02 186.78 565.02 176.75 558.12C176.75 558.12 176.75 558.12 176.75 558.12L176.75 502.04L210.48 502.04L210.48 558.12C210.48 558.12 210.48 558.12 210.48 558.12Z" id="dj1Kx1j7u"></path><path d="M210.57 549.57C210.57 546.4 210.57 530.59 210.57 502.11L176.83 502.11L176.83 540.31C191.11 546.12 202.36 549.2 210.57 549.57Z" id="j1xXuV6jHW"></path><path d="M267.59 472.94C258.48 472.94 251.14 466.11 251.14 457.64C251.14 456.99 251.14 451.78 251.14 451.13C251.14 442.66 258.48 435.84 267.59 435.84C267.59 435.84 267.59 435.84 267.59 435.84C276.7 435.84 284.03 442.66 284.03 451.13C284.03 451.78 284.03 456.99 284.03 457.64C284.03 466.03 276.61 472.94 267.59 472.94C267.59 472.94 267.59 472.94 267.59 472.94Z" id="a2Z5XYsSpt"></path><path d="M119.73 472.94C110.62 472.94 103.28 466.11 103.28 457.64C103.28 456.99 103.28 451.78 103.28 451.13C103.28 442.66 110.62 435.84 119.73 435.84C119.73 435.84 119.73 435.84 119.73 435.84C128.84 435.84 136.18 442.66 136.18 451.13C136.18 451.78 136.18 456.99 136.18 457.64C136.18 466.03 128.84 472.94 119.73 472.94C119.73 472.94 119.73 472.94 119.73 472.94Z" id="b1v06pBqel"></path><path d="M193.7 538.51C152.54 538.51 119.14 507.45 119.14 469.17C119.14 466.21 119.14 442.49 119.14 439.52C119.14 401.25 152.54 370.19 193.7 370.19C193.7 370.19 193.7 370.19 193.7 370.19C234.86 370.19 268.26 401.25 268.26 439.52C268.26 442.49 268.26 466.21 268.26 469.17C268.26 507.53 234.86 538.51 193.7 538.51C193.7 538.51 193.7 538.51 193.7 538.51Z" id="d1po8fuELY"></path><path d="M237.64 427.29C238.06 430.9 238.57 434.35 238.99 437.96C220.69 425.88 204.92 411.52 195.55 393.25C190.33 410.97 175.99 425.96 159.03 437.01C142.08 448.07 122.6 455.68 103.2 463.21C100.33 444 96.28 425.01 98.89 405.72C101.51 386.43 110.28 367.13 127.15 354.35C144.1 341.56 170.08 336.93 189.73 346.35C206.52 341.4 226.34 337.64 243.29 342.35C259.4 346.82 271.55 359.13 277.79 372.7C284.03 386.35 285.21 401.25 285.3 415.92C285.38 430.66 284.29 445.41 286.56 459.92C267.16 453.33 249.96 441.88 237.64 427.29Z" id="go0zPJPa0"></path><path d="M351.93 524.62C344.59 498.35 338.61 471.29 341.3 444.23C344 417.25 356.49 389.95 380.02 373.95C387.61 368.78 399.25 374.42 406.67 379.76C414.09 385.09 419.49 392.46 424.22 399.99C460.4 457.49 465.63 530.59 439.57 592.7C435.86 601.49 431.05 610.67 422.19 615.29C414.35 619.45 404.31 619.22 395.96 616C387.61 612.78 380.1 607.21 376.98 599.29C367.37 574.82 358.93 549.88 351.93 524.62Z" id="c2EC3bVFW"></path><path d="M530.66 524.62C538 498.35 543.99 471.29 541.29 444.23C538.59 417.25 526.11 389.95 502.57 373.95C494.98 368.78 483.34 374.42 475.92 379.76C468.5 385.09 463.1 392.46 458.38 399.99C422.19 457.49 416.96 530.59 443.03 592.7C446.74 601.49 451.54 610.67 460.4 615.29C468.25 619.45 478.28 619.22 486.63 616C494.98 612.78 502.49 607.21 505.61 599.29C515.23 574.82 523.66 549.88 530.66 524.62Z" id="fvfxw3rpM"></path><path d="M370.15 640C370.15 614.31 370.15 600.03 370.15 597.18C370.15 570.98 393.01 549.72 421.18 549.72C424.75 549.72 453.29 549.72 456.86 549.72C485.03 549.72 507.89 570.98 507.89 597.18C507.89 600.03 507.89 614.31 507.89 640L370.15 640Z" id="iaIcZpmcH"></path><path d="M456.69 549.64C476.76 556.63 491.02 574.59 491.02 595.61C491.02 598.56 491.02 613.33 491.02 639.92L507.89 639.92C507.89 614.23 507.89 599.95 507.89 597.1C507.89 570.9 485.11 549.64 456.86 549.64C456.82 549.64 456.71 549.64 456.69 549.64Z" id="aGBoMm8jd"></path><path d="M455.93 558.12C445.89 565.02 432.23 565.02 422.19 558.12C422.19 558.12 422.19 558.12 422.19 558.12L422.19 502.04L455.93 502.04L455.93 558.12C455.93 558.12 455.93 558.12 455.93 558.12Z" id="a5SW00OG1"></path><path d="M455.93 549.57C455.93 546.4 455.93 530.59 455.93 502.11L422.19 502.11L422.19 540.31C436.47 546.12 447.72 549.2 455.93 549.57Z" id="a7ZKHETj8B"></path><path d="M512.95 472.94C503.84 472.94 496.5 466.11 496.5 457.64C496.5 456.99 496.5 451.78 496.5 451.13C496.5 442.66 503.84 435.84 512.95 435.84C512.95 435.84 512.95 435.84 512.95 435.84C522.06 435.84 529.4 442.66 529.4 451.13C529.4 451.78 529.4 456.99 529.4 457.64C529.4 466.03 521.97 472.94 512.95 472.94C512.95 472.94 512.95 472.94 512.95 472.94Z" id="egBfaiGE8"></path><path d="M365.17 472.94C356.06 472.94 348.73 466.11 348.73 457.64C348.73 456.99 348.73 451.78 348.73 451.13C348.73 442.66 356.06 435.84 365.17 435.84C365.17 435.84 365.17 435.84 365.17 435.84C374.28 435.84 381.62 442.66 381.62 451.13C381.62 451.78 381.62 456.99 381.62 457.64C381.54 466.03 374.2 472.94 365.17 472.94C365.17 472.94 365.17 472.94 365.17 472.94Z" id="bp955CeV"></path><path d="M439.06 538.51C397.9 538.51 364.5 507.45 364.5 469.17C364.5 466.21 364.5 442.49 364.5 439.52C364.5 401.25 397.9 370.19 439.06 370.19C439.06 370.19 439.06 370.19 439.06 370.19C480.22 370.19 513.62 401.25 513.62 439.52C513.62 442.49 513.62 466.21 513.62 469.17C513.62 507.53 480.22 538.51 439.06 538.51C439.06 538.51 439.06 538.51 439.06 538.51Z" id="b151hZusx8"></path><path d="M392.5 415.99C424.3 452.62 479.21 472.7 532.6 467.6C539.52 446.35 541.79 422.27 534.46 401.17C527.12 380.07 509.15 360.93 484.61 353.48C468.67 348.62 451.21 348.93 434.34 350.27C421.52 351.29 408.11 353.09 397.82 359.6C378.92 371.6 357.58 381.95 349.65 400.78C341.73 419.6 341.05 438.66 343.08 458.58C364.33 449.33 381.96 434.19 392.5 415.99Z" id="coJEvyebU"></path></defs><g><g><g><g><use xlink:href="#cfyCVQRW8" opacity="1" fill="#ff9d02" fill-opacity="1"></use><g><use xlink:href="#cfyCVQRW8" opacity="1" fill-opacity="0" stroke="#000000" stroke-width="1" stroke-opacity="0"></use></g></g><g><use xlink:href="#g2AAIi8rn" opacity="1" fill="#000000" fill-opacity="1"></use><g><use xlink:href="#g2AAIi8rn" opacity="1" fill-opacity="0" stroke="#000000" stroke-width="1" stroke-opacity="0"></use></g></g><g><use xlink:href="#aTaIBkowQ" opacity="1" fill="#e8b894" fill-opacity="1"></use><g><use xlink:href="#aTaIBkowQ" opacity="1" fill-opacity="0" stroke="#000000" stroke-width="1" stroke-opacity="0"></use></g></g><g><use xlink:href="#a5HJCiOzw0" opacity="1" fill="#d1a685" fill-opacity="1"></use><g><use xlink:href="#a5HJCiOzw0" opacity="1" fill-opacity="0" stroke="#000000" stroke-width="1" stroke-opacity="0"></use></g></g><g><use xlink:href="#a17fwkw2J6" opacity="1" fill="#e8b894" fill-opacity="1"></use><g><use xlink:href="#a17fwkw2J6" opacity="1" fill-opacity="0" stroke="#000000" stroke-width="1" stroke-opacity="0"></use></g></g><g><use xlink:href="#fT2XHBQaG" opacity="1" fill="#e8b894" fill-opacity="1"></use><g><use xlink:href="#fT2XHBQaG" opacity="1" fill-opacity="0" stroke="#000000" stroke-width="1" stroke-opacity="0"></use></g></g><g><use xlink:href="#ab4hEZUtTP" opacity="1" fill="#ffcaa3" fill-opacity="1"></use><g><use xlink:href="#ab4hEZUtTP" opacity="1" fill-opacity="0" stroke="#000000" stroke-width="1" stroke-opacity="0"></use></g></g><g><use xlink:href="#a1gcdxjlAq" opacity="1" fill="#e37f00" fill-opacity="1"></use><g><use xlink:href="#a1gcdxjlAq" opacity="1" fill-opacity="0" stroke="#000000" stroke-width="1" stroke-opacity="0"></use></g></g><g><use xlink:href="#b26ZlbEVdA" opacity="1" fill="#00b09f" fill-opacity="1"></use><g><use xlink:href="#b26ZlbEVdA" opacity="1" fill-opacity="0" stroke="#000000" stroke-width="1" stroke-opacity="0"></use></g></g><g><use xlink:href="#ck60CZ1it" opacity="1" fill="#000000" fill-opacity="1"></use><g><use xlink:href="#ck60CZ1it" opacity="1" fill-opacity="0" stroke="#000000" stroke-width="1" stroke-opacity="0"></use></g></g><g><use xlink:href="#bIr3mewgo" opacity="1" fill="#e8b894" fill-opacity="1"></use><g><use xlink:href="#bIr3mewgo" opacity="1" fill-opacity="0" stroke="#000000" stroke-width="1" stroke-opacity="0"></use></g></g><g><use xlink:href="#b4cAY4c3cO" opacity="1" fill="#d1a685" fill-opacity="1"></use><g><use xlink:href="#b4cAY4c3cO" opacity="1" fill-opacity="0" stroke="#000000" stroke-width="1" stroke-opacity="0"></use></g></g><g><use xlink:href="#a1mN9b0Uvy" opacity="1" fill="#e8b894" fill-opacity="1"></use><g><use xlink:href="#a1mN9b0Uvy" opacity="1" fill-opacity="0" stroke="#000000" stroke-width="1" stroke-opacity="0"></use></g></g><g><use xlink:href="#e40iqUDsk" opacity="1" fill="#e8b894" fill-opacity="1"></use><g><use xlink:href="#e40iqUDsk" opacity="1" fill-opacity="0" stroke="#000000" stroke-width="1" stroke-opacity="0"></use></g></g><g><use xlink:href="#b1ajQoVofq" opacity="1" fill="#ffcaa3" fill-opacity="1"></use><g><use xlink:href="#b1ajQoVofq" opacity="1" fill-opacity="0" stroke="#000000" stroke-width="1" stroke-opacity="0"></use></g></g><g><use xlink:href="#b5aYgxCI3K" opacity="1" fill="#bd5a00" fill-opacity="1"></use><g><use xlink:href="#b5aYgxCI3K" opacity="1" fill-opacity="0" stroke="#000000" stroke-width="1" stroke-opacity="0"></use></g></g><g><use xlink:href="#b1vFwhABhJ" opacity="1" fill="#784900" fill-opacity="1"></use><g><use xlink:href="#b1vFwhABhJ" opacity="1" fill-opacity="0" stroke="#000000" stroke-width="1" stroke-opacity="0"></use></g></g><g><use xlink:href="#etdLTSniP" opacity="1" fill="#784900" fill-opacity="1"></use><g><use xlink:href="#etdLTSniP" opacity="1" fill-opacity="0" stroke="#000000" stroke-width="1" stroke-opacity="0"></use></g></g><g><use xlink:href="#a19pGVijCK" opacity="1" fill="#47ccbf" fill-opacity="1"></use><g><use xlink:href="#a19pGVijCK" opacity="1" fill-opacity="0" stroke="#000000" stroke-width="1" stroke-opacity="0"></use></g></g><g><use xlink:href="#c1g6dmO1BI" opacity="1" fill="#000000" fill-opacity="1"></use><g><use xlink:href="#c1g6dmO1BI" opacity="1" fill-opacity="0" stroke="#000000" stroke-width="1" stroke-opacity="0"></use></g></g><g><use xlink:href="#dj1Kx1j7u" opacity="1" fill="#e8b894" fill-opacity="1"></use><g><use xlink:href="#dj1Kx1j7u" opacity="1" fill-opacity="0" stroke="#000000" stroke-width="1" stroke-opacity="0"></use></g></g><g><use xlink:href="#j1xXuV6jHW" opacity="1" fill="#d1a685" fill-opacity="1"></use><g><use xlink:href="#j1xXuV6jHW" opacity="1" fill-opacity="0" stroke="#000000" stroke-width="1" stroke-opacity="0"></use></g></g><g><use xlink:href="#a2Z5XYsSpt" opacity="1" fill="#e8b894" fill-opacity="1"></use><g><use xlink:href="#a2Z5XYsSpt" opacity="1" fill-opacity="0" stroke="#000000" stroke-width="1" stroke-opacity="0"></use></g></g><g><use xlink:href="#b1v06pBqel" opacity="1" fill="#e8b894" fill-opacity="1"></use><g><use xlink:href="#b1v06pBqel" opacity="1" fill-opacity="0" stroke="#000000" stroke-width="1" stroke-opacity="0"></use></g></g><g><use xlink:href="#d1po8fuELY" opacity="1" fill="#ffcaa3" fill-opacity="1"></use><g><use xlink:href="#d1po8fuELY" opacity="1" fill-opacity="0" stroke="#000000" stroke-width="1" stroke-opacity="0"></use></g></g><g><use xlink:href="#go0zPJPa0" opacity="1" fill="#8d5600" fill-opacity="1"></use><g><use xlink:href="#go0zPJPa0" opacity="1" fill-opacity="0" stroke="#000000" stroke-width="1" stroke-opacity="0"></use></g></g><g><use xlink:href="#c2EC3bVFW" opacity="1" fill="#ffa82e" fill-opacity="1"></use><g><use xlink:href="#c2EC3bVFW" opacity="1" fill-opacity="0" stroke="#000000" stroke-width="1" stroke-opacity="0"></use></g></g><g><use xlink:href="#fvfxw3rpM" opacity="1" fill="#ffa82e" fill-opacity="1"></use><g><use xlink:href="#fvfxw3rpM" opacity="1" fill-opacity="0" stroke="#000000" stroke-width="1" stroke-opacity="0"></use></g></g><g><use xlink:href="#iaIcZpmcH" opacity="1" fill="#bb6c00" fill-opacity="1"></use><g><use xlink:href="#iaIcZpmcH" opacity="1" fill-opacity="0" stroke="#000000" stroke-width="1" stroke-opacity="0"></use></g></g><g><use xlink:href="#aGBoMm8jd" opacity="1" fill="#000000" fill-opacity="1"></use><g><use xlink:href="#aGBoMm8jd" opacity="1" fill-opacity="0" stroke="#000000" stroke-width="1" stroke-opacity="0"></use></g></g><g><use xlink:href="#a5SW00OG1" opacity="1" fill="#e8b894" fill-opacity="1"></use><g><use xlink:href="#a5SW00OG1" opacity="1" fill-opacity="0" stroke="#000000" stroke-width="1" stroke-opacity="0"></use></g></g><g><use xlink:href="#a7ZKHETj8B" opacity="1" fill="#d1a685" fill-opacity="1"></use><g><use xlink:href="#a7ZKHETj8B" opacity="1" fill-opacity="0" stroke="#000000" stroke-width="1" stroke-opacity="0"></use></g></g><g><use xlink:href="#egBfaiGE8" opacity="1" fill="#e8b894" fill-opacity="1"></use><g><use xlink:href="#egBfaiGE8" opacity="1" fill-opacity="0" stroke="#000000" stroke-width="1" stroke-opacity="0"></use></g></g><g><use xlink:href="#bp955CeV" opacity="1" fill="#e8b894" fill-opacity="1"></use><g><use xlink:href="#bp955CeV" opacity="1" fill-opacity="0" stroke="#000000" stroke-width="1" stroke-opacity="0"></use></g></g><g><use xlink:href="#b151hZusx8" opacity="1" fill="#ffcaa3" fill-opacity="1"></use><g><use xlink:href="#b151hZusx8" opacity="1" fill-opacity="0" stroke="#000000" stroke-width="1" stroke-opacity="0"></use></g></g><g><use xlink:href="#coJEvyebU" opacity="1" fill="#ffa82e" fill-opacity="1"></use><g><use xlink:href="#coJEvyebU" opacity="1" fill-opacity="0" stroke="#000000" stroke-width="1" stroke-opacity="0"></use></g></g></g></g></g></svg>