<?xml version="1.0" encoding="UTF-8" standalone="no"?>
<!DOCTYPE svg PUBLIC "-//W3C//DTD SVG 1.1//EN" "http://www.w3.org/Graphics/SVG/1.1/DTD/svg11.dtd">
<svg version="1.1" xmlns="http://www.w3.org/2000/svg" xmlns:xlink="http://www.w3.org/1999/xlink" preserveAspectRatio="xMidYMid meet" viewBox="0 0 640 640" width="640" height="640"><defs><path d="M476.87 152.63C476.82 152.63 476.78 152.67 476.77 152.72C476.77 152.72 476.77 152.72 476.77 152.72C476.7 152.79 476.32 153.14 475.64 153.76L470.92 158.49L470.92 158.49L475.64 153.76C476.32 153.14 476.7 152.79 476.77 152.72C476.77 152.67 476.81 152.63 476.86 152.63C476.86 152.63 476.87 152.63 476.87 152.63" id="a2ByNcXXnu"></path><path d="M473.64 161.29L475.62 163.28C476.3 163.91 476.68 164.26 476.75 164.33C477.06 164.63 477.41 164.89 477.79 165.09C477.41 164.89 477.06 164.63 476.75 164.33C476.68 164.26 476.3 163.91 475.62 163.28L473.64 161.29M481.48 166.04L481.48 166.04" id="aMcs31GL4"></path><path d="M436.17 119.05L436.27 119.15L437.4 120.28L442.12 125L442.12 125L437.4 120.19L436.27 119.15L436.17 119.05" id="a1GGsFXBgl"></path><path d="M439.49 127.67L437.42 129.75C436.74 130.37 436.36 130.71 436.29 130.78C436.01 131.05 435.69 131.27 435.34 131.44C435.69 131.27 436.01 131.05 436.29 130.78C436.36 130.71 436.74 130.37 437.42 129.75L439.49 127.68M431.57 132.47L431.57 132.47" id="bIzihW84D"></path><path d="M175.38 269.03L121.72 303.47L112.14 303.44L165.96 269L165.96 269L175.38 269.03Z" id="dlszlyno5"></path><path d="M99.9 303.4L100.67 268.77L155.44 268.96L101.79 303.4L101.79 303.4L99.9 303.4Z" id="b1fkMcztZt"></path><path d="M508.02 315.81L508.27 304.61L141.5 303.33L194.99 268.88L509.04 269.98L509.29 258.78L562.32 287.53L562.32 287.53L508.02 315.81Z" id="b3LV7jF8qS"></path><path d="M737.72 288.73C737.72 288.57 738.12 288.57 738.13 288.42C738.45 288.3 740.07 287.73 742.97 286.69L763.23 278.86L763.23 278.86L742.97 286.69C740.06 287.82 738.45 288.45 738.12 288.57C737.91 288.57 737.73 288.64 737.72 288.72C737.72 288.72 737.72 288.72 737.72 288.73" id="a1jWlMGHhC"></path><path d="M751.77 274.33L743.43 270.82C740.57 269.67 738.97 269.03 738.65 268.9C737.35 268.43 735.87 268.05 734.26 267.77C735.87 268.05 737.35 268.43 738.65 268.9C738.97 269.03 740.57 269.67 743.43 270.82L751.77 274.33M718.65 266.13L718.65 266.13" id="bzHs5sVeR"></path></defs><g><g><g><use xlink:href="#a2ByNcXXnu" opacity="1" fill="#4a8878" fill-opacity="1"></use><g><use xlink:href="#a2ByNcXXnu" opacity="1" fill-opacity="0" stroke="#000000" stroke-width="1" stroke-opacity="0"></use></g></g><g><use xlink:href="#aMcs31GL4" opacity="1" fill="#4a8878" fill-opacity="1"></use><g><use xlink:href="#aMcs31GL4" opacity="1" fill-opacity="0" stroke="#000000" stroke-width="1" stroke-opacity="0"></use></g></g><g><use xlink:href="#a1GGsFXBgl" opacity="1" fill="#b04534" fill-opacity="1"></use><g><use xlink:href="#a1GGsFXBgl" opacity="1" fill-opacity="0" stroke="#000000" stroke-width="1" stroke-opacity="0"></use></g></g><g><use xlink:href="#bIzihW84D" opacity="1" fill="#b04534" fill-opacity="1"></use><g><use xlink:href="#bIzihW84D" opacity="1" fill-opacity="0" stroke="#000000" stroke-width="1" stroke-opacity="0"></use></g></g><g><g><use xlink:href="#dlszlyno5" opacity="1" fill="#fbaf2e" fill-opacity="1"></use><g><use xlink:href="#dlszlyno5" opacity="1" fill-opacity="0" stroke="#000000" stroke-width="1" stroke-opacity="0"></use></g></g><g><use xlink:href="#b1fkMcztZt" opacity="1" fill="#fbaf2e" fill-opacity="1"></use><g><use xlink:href="#b1fkMcztZt" opacity="1" fill-opacity="0" stroke="#000000" stroke-width="1" stroke-opacity="0"></use></g></g><g><use xlink:href="#b3LV7jF8qS" opacity="1" fill="#fbaf2e" fill-opacity="1"></use><g><use xlink:href="#b3LV7jF8qS" opacity="1" fill-opacity="0" stroke="#000000" stroke-width="1" stroke-opacity="0"></use></g></g><g><use xlink:href="#a1jWlMGHhC" opacity="1" fill="#bc953f" fill-opacity="1"></use><g><use xlink:href="#a1jWlMGHhC" opacity="1" fill-opacity="0" stroke="#000000" stroke-width="1" stroke-opacity="0"></use></g></g><g><use xlink:href="#bzHs5sVeR" opacity="1" fill="#bc953f" fill-opacity="1"></use><g><use xlink:href="#bzHs5sVeR" opacity="1" fill-opacity="0" stroke="#000000" stroke-width="1" stroke-opacity="0"></use></g></g></g></g></g></svg>